<?xml version="1.0" encoding="utf-8"?>
<!-- Generator: Adobe Illustrator 16.0.0, SVG Export Plug-In . SVG Version: 6.00 Build 0)  -->
<!DOCTYPE svg PUBLIC "-//W3C//DTD SVG 1.1//EN" "http://www.w3.org/Graphics/SVG/1.1/DTD/svg11.dtd">
<svg version="1.1" id="Layer_1" xmlns="http://www.w3.org/2000/svg" xmlns:xlink="http://www.w3.org/1999/xlink" x="0px" y="0px"
	 width="315.333px" height="128.462px" viewBox="0 0 315.333 128.462" enable-background="new 0 0 315.333 128.462"
	 xml:space="preserve">
<g>
	<g>
		<path fill="#FFFFFF" d="M32.612,93.671c2.25-0.874,4.728-1.516,5.92-1.516c5.875,0,9.182,3.763,9.182,7.711
			c0,2.847-1.421,5.555-4.639,7.802c-2.568,1.883-5.825,3.077-8.584,3.123c-1.835,0-3.76-0.644-4.772-1.469
			c-0.917-0.735-1.102-1.194-1.102-1.883c0-0.688,0.644-1.743,1.471-2.34c0.549-0.367,1.058-0.229,1.65,0.275
			c1.103,1.01,3.308,2.8,5.921,2.8c2.848,0,4.224-2.524,4.224-5.92c0-4.086-2.613-6.795-6.793-6.795c-2.11,0-4.04,0.551-5.002,0.873
			l2.065-14.688h14.548l0.28,0.458l-1.472,4.498H33.854L32.612,93.671z"/>
		<path fill="#FFFFFF" d="M55.565,93.671c2.249-0.874,4.728-1.516,5.919-1.516c5.875,0,9.182,3.763,9.182,7.711
			c0,2.847-1.421,5.555-4.639,7.802c-2.568,1.883-5.825,3.077-8.583,3.123c-1.835,0-3.76-0.644-4.772-1.469
			c-0.918-0.735-1.103-1.194-1.103-1.883c0-0.688,0.644-1.743,1.471-2.34c0.549-0.367,1.057-0.229,1.651,0.275
			c1.103,1.01,3.307,2.8,5.92,2.8c2.848,0,4.224-2.524,4.224-5.92c0-4.086-2.613-6.795-6.793-6.795
			c-2.109,0-4.039,0.551-5.002,0.873l2.065-14.688h14.547l0.281,0.458l-1.473,4.498H56.807L55.565,93.671z"/>
		<path fill="#FFFFFF" d="M78.518,93.671c2.25-0.874,4.729-1.516,5.92-1.516c5.875,0,9.182,3.763,9.182,7.711
			c0,2.847-1.421,5.555-4.639,7.802c-2.568,1.883-5.825,3.077-8.583,3.123c-1.835,0-3.76-0.644-4.772-1.469
			c-0.917-0.735-1.102-1.194-1.102-1.883c0-0.688,0.644-1.743,1.471-2.34c0.549-0.367,1.058-0.229,1.65,0.275
			c1.103,1.01,3.308,2.8,5.921,2.8c2.848,0,4.225-2.524,4.225-5.92c0-4.086-2.613-6.795-6.793-6.795
			c-2.109,0-4.04,0.551-5.002,0.873l2.065-14.688h14.548l0.28,0.458l-1.472,4.498H79.76L78.518,93.671z"/>
		<path fill="#FFFFFF" d="M108.862,101.382H97.615l0.688-3.304h11.292L108.862,101.382z"/>
		<path fill="#FFFFFF" d="M117.171,93.671c2.249-0.874,4.728-1.516,5.92-1.516c5.875,0,9.176,3.763,9.176,7.711
			c0,2.847-1.421,5.555-4.633,7.802c-2.568,1.883-5.83,3.077-8.583,3.123c-1.835,0-3.766-0.644-4.773-1.469
			c-0.918-0.735-1.103-1.194-1.103-1.883c0-0.688,0.644-1.743,1.466-2.34c0.555-0.367,1.059-0.229,1.657,0.275
			c1.103,1.01,3.301,2.8,5.92,2.8c2.848,0,4.224-2.524,4.224-5.92c0-4.086-2.619-6.795-6.792-6.795c-2.115,0-4.04,0.551-5.008,0.873
			l2.071-14.688h14.548l0.274,0.458l-1.465,4.498h-11.662L117.171,93.671z"/>
		<path fill="#FFFFFF" d="M140.124,93.671c2.249-0.874,4.728-1.516,5.919-1.516c5.875,0,9.177,3.763,9.177,7.711
			c0,2.847-1.421,5.555-4.633,7.802c-2.568,1.883-5.83,3.077-8.583,3.123c-1.835,0-3.767-0.644-4.773-1.469
			c-0.917-0.735-1.102-1.194-1.102-1.883c0-0.688,0.644-1.743,1.465-2.34c0.555-0.367,1.058-0.229,1.657,0.275
			c1.102,1.01,3.301,2.8,5.92,2.8c2.848,0,4.225-2.524,4.225-5.92c0-4.086-2.619-6.795-6.793-6.795c-2.115,0-4.04,0.551-5.008,0.873
			l2.071-14.688h14.548l0.274,0.458l-1.466,4.498h-11.661L140.124,93.671z"/>
		<path fill="#FFFFFF" d="M163.077,93.671c2.249-0.874,4.728-1.516,5.92-1.516c5.875,0,9.177,3.763,9.177,7.711
			c0,2.847-1.422,5.555-4.634,7.802c-2.568,1.883-5.83,3.077-8.583,3.123c-1.835,0-3.766-0.644-4.773-1.469
			c-0.917-0.735-1.103-1.194-1.103-1.883c0-0.688,0.644-1.743,1.466-2.34c0.554-0.367,1.057-0.229,1.657,0.275
			c1.102,1.01,3.301,2.8,5.92,2.8c2.848,0,4.224-2.524,4.224-5.92c0-4.086-2.619-6.795-6.792-6.795
			c-2.116,0-4.041,0.551-5.008,0.873l2.07-14.688h14.548l0.274,0.458l-1.466,4.498h-11.662L163.077,93.671z"/>
		<path fill="#FFFFFF" d="M193.415,101.382h-11.241l0.688-3.304h11.292L193.415,101.382z"/>
		<path fill="#FFFFFF" d="M201.725,93.671c2.249-0.874,4.728-1.516,5.919-1.516c5.875,0,9.182,3.763,9.182,7.711
			c0,2.847-1.42,5.555-4.638,7.802c-2.569,1.883-5.825,3.077-8.583,3.123c-1.835,0-3.76-0.644-4.773-1.469
			c-0.917-0.735-1.102-1.194-1.102-1.883c0-0.688,0.644-1.743,1.472-2.34c0.548-0.367,1.057-0.229,1.651,0.275
			c1.103,1.01,3.306,2.8,5.919,2.8c2.848,0,4.225-2.524,4.225-5.92c0-4.086-2.613-6.795-6.793-6.795
			c-2.109,0-4.04,0.551-5.002,0.873l2.064-14.688h14.548l0.28,0.458l-1.472,4.498h-11.655L201.725,93.671z"/>
		<path fill="#FFFFFF" d="M224.677,93.671c2.249-0.874,4.728-1.516,5.92-1.516c5.875,0,9.182,3.763,9.182,7.711
			c0,2.847-1.42,5.555-4.638,7.802c-2.569,1.883-5.825,3.077-8.583,3.123c-1.835,0-3.76-0.644-4.773-1.469
			c-0.918-0.735-1.103-1.194-1.103-1.883c0-0.688,0.644-1.743,1.472-2.34c0.548-0.367,1.058-0.229,1.65,0.275
			c1.103,1.01,3.307,2.8,5.92,2.8c2.848,0,4.225-2.524,4.225-5.92c0-4.086-2.612-6.795-6.792-6.795
			c-2.109,0-4.041,0.551-5.002,0.873l2.064-14.688h14.549l0.279,0.458l-1.471,4.498h-11.656L224.677,93.671z"/>
		<path fill="#FFFFFF" d="M247.63,93.671c2.25-0.874,4.728-1.516,5.92-1.516c5.875,0,9.182,3.763,9.182,7.711
			c0,2.847-1.421,5.555-4.638,7.802c-2.569,1.883-5.825,3.077-8.583,3.123c-1.835,0-3.761-0.644-4.773-1.469
			c-0.917-0.735-1.102-1.194-1.102-1.883c0-0.688,0.644-1.743,1.472-2.34c0.548-0.367,1.057-0.229,1.65,0.275
			c1.103,1.01,3.307,2.8,5.92,2.8c2.848,0,4.224-2.524,4.224-5.92c0-4.086-2.613-6.795-6.792-6.795
			c-2.109,0-4.041,0.551-5.002,0.873l2.064-14.688h14.548l0.28,0.458l-1.471,4.498h-11.656L247.63,93.671z"/>
		<path fill="#FFFFFF" d="M270.583,93.671c2.249-0.874,4.728-1.516,5.919-1.516c5.875,0,9.182,3.763,9.182,7.711
			c0,2.847-1.421,5.555-4.639,7.802c-2.568,1.883-5.825,3.077-8.583,3.123c-1.835,0-3.761-0.644-4.773-1.469
			c-0.918-0.735-1.103-1.194-1.103-1.883c0-0.688,0.644-1.743,1.472-2.34c0.549-0.367,1.058-0.229,1.651,0.275
			c1.102,1.01,3.306,2.8,5.92,2.8c2.848,0,4.224-2.524,4.224-5.92c0-4.086-2.612-6.795-6.792-6.795c-2.109,0-4.04,0.551-5.002,0.873
			l2.065-14.688h14.548l0.279,0.458l-1.471,4.498h-11.656L270.583,93.671z"/>
	</g>
	<g>
		<g>
			<g>
				<path fill="#FFFFFF" d="M104.301,22.083c-0.525,1.942-1.578,5.013-2.265,6.429c-1.047,0.24-4.768,1.049-7.521,1.049
					c-10.749,0-15.236-6.991-15.236-13.418c0-8.287,6.39-14.066,16.048-14.066c3.273,0,6.267,0.847,7.359,1.091
					c0.363,2.225,0.649,4.082,0.928,6.628l-1.494,0.285c-1.338-4.812-4.448-6.227-7.56-6.227c-5.864,0-9.093,5.539-9.093,11.481
					c0,7.436,4,12.327,9.496,12.327c3.357,0,5.864-2.143,7.923-6.225L104.301,22.083z"/>
				<path fill="#FFFFFF" d="M94.515,31.637c-11.89,0-17.307-8.032-17.307-15.495C77.208,6.639,84.656,0,95.326,0
					c3.067,0,5.813,0.664,7.285,1.021l1.892,0.426l0.229,1.384c0.381,2.342,0.661,4.194,0.946,6.734l0.213,1.908l-5.26,0.999
					l-0.509-1.837c-0.896-3.212-2.664-4.706-5.562-4.706c-4.824,0-7.022,4.873-7.022,9.405c0,6.133,2.988,10.254,7.425,10.254
					c1.633,0,3.793-0.579,6.07-5.086l0.902-1.782l4.829,2.21l-0.458,1.695c-0.549,2.014-1.64,5.226-2.4,6.793l-0.431,0.89
					l-0.974,0.224C101.062,30.862,97.397,31.637,94.515,31.637z M85.417,7.283c-2.579,2.109-4.062,5.175-4.062,8.86
					c0,3.394,1.449,7.154,5.12,9.381c-1.953-2.526-3.083-6.054-3.083-10.189C83.391,12.493,84.074,9.639,85.417,7.283z"/>
			</g>
			<g>
				<path fill="#FFFFFF" d="M121.167,28.954v-1.416c2.383-0.364,2.585-0.848,1.936-2.625c-0.403-1.214-1.008-2.91-1.617-4.565
					h-7.761c-0.442,1.25-0.967,2.705-1.449,4.322c-0.571,1.938-0.487,2.504,2.462,2.868v1.416h-9.054l0.039-1.416
					c2.669-0.322,3.156-0.767,4.487-4.163l8.288-20.773l2.064-0.526c2.585,7.072,5.092,14.106,7.716,21.059
					c1.376,3.556,1.903,4.081,4.449,4.403v1.416H121.167z M117.73,9.471h-0.123c-1.13,2.954-2.137,5.864-3.189,8.734h6.307
					L117.73,9.471z"/>
				<path fill="#FFFFFF" d="M134.803,31.03H119.09v-5.271l1.762-0.269c0.09-0.014,0.168-0.027,0.246-0.04
					c-0.296-0.873-0.67-1.93-1.063-3.033h-4.839c-0.308,0.879-0.633,1.831-0.935,2.849c-0.011,0.034-0.022,0.07-0.034,0.101
					c0.196,0.04,0.448,0.076,0.767,0.112l1.819,0.226v5.324h-13.261l0.15-5.332l1.774-0.218c1.762-0.213,1.762-0.213,2.804-2.859
					l8.678-21.766l4.908-1.251l2.993,8.231c1.773,4.887,3.537,9.744,5.36,14.567c1.108,2.87,1.108,2.87,2.765,3.08l1.818,0.232
					V31.03z M125.43,26.878h2.294c-0.486-0.789-0.906-1.773-1.376-2.997c-1.841-4.851-3.609-9.728-5.383-14.632l-1.377-3.779
					l-0.772,1.93h0.397l4.224,12.232c0.61,1.679,1.225,3.397,1.634,4.622C125.279,24.825,125.648,25.837,125.43,26.878z"/>
			</g>
			<g>
				<path fill="#FFFFFF" d="M155.651,22.125c-0.324,1.698-1.169,5.741-1.493,6.83h-19.685v-1.416
					c3.514-0.281,3.917-0.563,3.917-3.959V8.1c0-3.478-0.403-3.721-3.475-4.001V2.683h12.372v1.416
					c-3.117,0.28-3.48,0.523-3.48,4.001v15.763c0,1.899,0.162,2.626,1.013,2.991c0.683,0.282,1.78,0.363,3.033,0.363
					c1.696,0,3.151-0.283,4.124-1.374c0.766-0.85,1.494-2.143,2.261-4.163L155.651,22.125z"/>
				<path fill="#FFFFFF" d="M155.702,31.03h-23.305v-5.405l1.908-0.151c0.425-0.034,1.466-0.117,1.931-0.246
					c0.044-0.234,0.083-0.711,0.083-1.648V8.1c0-0.979-0.045-1.482-0.083-1.74c-0.403-0.095-1.181-0.168-1.511-0.196l-1.886-0.173
					V0.607h16.518V5.99l-1.88,0.173c-0.33,0.028-1.108,0.101-1.516,0.193c-0.039,0.261-0.078,0.77-0.078,1.743v15.763
					c0,0.587,0.022,0.945,0.044,1.158c0.308,0.059,0.89,0.123,1.925,0.123c1.746,0,2.294-0.363,2.574-0.677
					c0.627-0.694,1.231-1.841,1.875-3.523l0.694-1.83l5.041,1.587l-0.347,1.813c-0.279,1.471-1.164,5.763-1.539,7.033L155.702,31.03
					z M140.028,26.878h2.104c-0.397-0.974-0.397-2.09-0.397-3.016V8.1c0-1.413,0.112-2.501,0.397-3.343h-2.07
					c0.29,0.841,0.403,1.93,0.403,3.343v15.48C140.465,24.986,140.331,26.058,140.028,26.878z"/>
			</g>
			<g>
				<path fill="#FFFFFF" d="M177.927,22.125c-0.319,1.698-1.169,5.741-1.493,6.83h-19.686v-1.416
					c3.52-0.281,3.923-0.563,3.923-3.959V8.1c0-3.478-0.403-3.721-3.476-4.001V2.683h12.372v1.416
					c-3.117,0.28-3.481,0.523-3.481,4.001v15.763c0,1.899,0.163,2.626,1.013,2.991c0.683,0.282,1.78,0.363,3.027,0.363
					c1.702,0,3.156-0.283,4.125-1.374c0.772-0.85,1.494-2.143,2.266-4.163L177.927,22.125z"/>
				<path fill="#FFFFFF" d="M177.983,31.03h-23.305v-5.405l1.909-0.151c0.424-0.034,1.465-0.117,1.924-0.246
					c0.045-0.234,0.084-0.711,0.084-1.648V8.1c0-0.979-0.039-1.482-0.084-1.74c-0.397-0.095-1.181-0.168-1.505-0.196l-1.886-0.173
					V0.607h16.519V5.99l-1.886,0.173c-0.33,0.028-1.103,0.101-1.511,0.193c-0.044,0.261-0.079,0.77-0.079,1.743v15.763
					c0,0.587,0.022,0.945,0.04,1.158c0.308,0.059,0.89,0.123,1.924,0.123c1.751,0,2.294-0.363,2.574-0.677
					c0.627-0.694,1.237-1.841,1.875-3.523l0.693-1.83l5.041,1.587l-0.34,1.813c-0.28,1.471-1.17,5.763-1.545,7.033L177.983,31.03z
					 M162.304,26.878h2.104c-0.397-0.974-0.397-2.09-0.397-3.016V8.1c0-1.413,0.112-2.501,0.403-3.343h-2.07
					c0.292,0.841,0.403,1.93,0.403,3.343v15.48C162.747,24.986,162.612,26.058,162.304,26.878z"/>
			</g>
			<g>
				<path fill="#FFFFFF" d="M216.094,4.099c-2.216,0.118-3.234,0.969-3.436,2.384c-0.201,1.253-0.364,2.748-0.364,5.618v4.403
					c0,4.286-0.644,7.683-2.91,10.105c-1.858,1.942-4.605,2.952-7.476,2.952c-2.669,0-5.215-0.565-7.156-2.101
					c-2.3-1.779-3.352-4.768-3.352-9.496V8.463c0-3.799-0.403-4.084-3.396-4.364V2.683h12.165v1.416
					c-2.95,0.28-3.358,0.565-3.358,4.364v8.771c0,6.063,2.188,9.577,6.553,9.577c4.812,0,6.916-3.637,6.916-10.386v-4.325
					c0-2.87-0.201-4.404-0.408-5.618c-0.202-1.415-1.176-2.224-3.917-2.384V2.683h10.139V4.099z"/>
				<path fill="#FFFFFF" d="M201.909,31.637c-3.463,0-6.3-0.859-8.444-2.551c-2.814-2.174-4.141-5.716-4.141-11.122V8.463
					c0-1.242-0.055-1.835-0.111-2.109c-0.375-0.095-1.125-0.165-1.405-0.19l-1.875-0.179V0.607h16.311v5.378l-1.875,0.179
					c-0.268,0.022-1.001,0.095-1.365,0.185c-0.062,0.277-0.112,0.873-0.112,2.115v8.771c0,7.504,3.363,7.504,4.471,7.504
					c1.45,0,4.84,0,4.84-8.313v-4.325c0-2.79-0.195-4.186-0.38-5.276l-0.05-0.241l0,0c0,0-0.353-0.323-1.942-0.415l-1.953-0.114
					V0.607h14.291v5.456l-1.958,0.106c-1.422,0.078-1.473,0.42-1.495,0.604c-0.185,1.125-0.347,2.518-0.347,5.327v4.403
					c0,3.637-0.392,8.231-3.463,11.521C208.696,30.328,205.423,31.637,201.909,31.637z M193.023,4.757
					c0.33,0.911,0.454,2.118,0.454,3.706v9.501c0,5.277,1.455,7.008,2.546,7.851c0.548,0.436,1.181,0.787,1.902,1.052
					c-1.757-1.626-3.183-4.524-3.183-9.633V8.463c0-1.588,0.123-2.795,0.447-3.706H193.023z"/>
			</g>
			<g>
				<path fill="#FFFFFF" d="M232.802,9.272c-0.851-2.549-2.344-5.537-5.663-5.537c-2.26,0-3.917,1.695-3.917,4.001
					c0,2.222,1.455,3.517,5.008,5.293c4.247,2.062,7.157,4.326,7.157,8.327c0,4.611-3.923,8.206-9.82,8.206
					c-1.46,0-2.871-0.201-4.084-0.565c-1.13-0.324-1.903-0.649-2.468-0.89c-0.363-1.01-0.883-4.406-1.169-6.874l1.415-0.442
					c0.806,2.585,3.19,7.115,7.073,7.115c2.468,0,4.04-1.699,4.04-4.245c0-2.383-1.779-3.88-4.807-5.498
					c-4.168-2.101-7.033-4.284-7.033-8.167c0-4.443,3.514-7.92,9.254-7.92c2.585,0,4.891,0.809,5.618,1.091
					c0.163,1.497,0.448,3.274,0.768,5.781L232.802,9.272z"/>
				<path fill="#FFFFFF" d="M225.567,31.637c-1.633,0-3.25-0.227-4.678-0.652c-1.27-0.363-2.154-0.744-2.691-0.974l-0.829-0.353
					l-0.302-0.85c-0.509-1.41-1.057-5.417-1.281-7.336l-0.196-1.703l5.03-1.581l0.621,1.98c0.71,2.277,2.652,5.663,5.092,5.663
					c1.623,0,1.97-1.181,1.97-2.171c0-1.041-0.622-2.02-3.715-3.665c-4.202-2.126-8.13-4.821-8.13-9.999
					c0-5.887,4.655-9.997,11.331-9.997c2.893,0,5.422,0.865,6.368,1.234l1.175,0.458l0.14,1.25c0.083,0.828,0.218,1.743,0.363,2.829
					c0.124,0.856,0.258,1.815,0.397,2.909l0.235,1.853l-5.037,1.191l-0.593-1.798c-1.22-3.651-2.619-4.121-3.698-4.121
					c-1.103,0-1.846,0.778-1.846,1.93c0,0.854,0.285,1.648,3.866,3.436c4.096,1.991,8.304,4.765,8.304,10.184
					C237.463,27.314,232.455,31.637,225.567,31.637z M221.152,7.557c-0.358,0.727-0.549,1.544-0.549,2.439
					c0,2.468,1.544,4.119,5.898,6.312c3.105,1.659,5.948,3.682,5.948,7.353c0,0.251-0.011,0.503-0.034,0.75
					c0.582-0.879,0.896-1.914,0.896-3.055c0-2.589-1.623-4.339-5.982-6.46c-3.268-1.634-6.183-3.402-6.183-7.16
					C221.146,7.674,221.146,7.616,221.152,7.557z"/>
			</g>
		</g>
		<g>
			<g>
				<path fill="#FFFFFF" d="M112.773,46.767c-0.487-2.101-1.052-3.436-1.779-4.163c-0.688-0.729-1.74-0.97-4.08-0.97h-1.863v19.119
					c0,3.436,0.403,3.677,3.962,3.962v1.413H95.835v-1.413c3.396-0.285,3.799-0.526,3.799-3.962V41.634h-1.376
					c-3.313,0-4.041,0.444-4.645,1.09c-0.649,0.689-1.175,2.065-1.695,4.085h-1.46c0.162-2.951,0.409-5.903,0.487-7.965h0.974
					c0.644,0.932,1.169,1.01,2.299,1.01h16.25c1.09,0,1.656-0.241,2.344-1.01h0.968c0.044,1.698,0.247,5.257,0.447,7.842
					L112.773,46.767z"/>
				<path fill="#FFFFFF" d="M111.089,68.201H93.765v-5.397l1.898-0.159c0.402-0.031,1.364-0.112,1.818-0.224
					c0.039-0.246,0.084-0.727,0.084-1.667V43.715c-2.087,0.05-2.339,0.319-2.439,0.431c-0.157,0.168-0.583,0.808-1.204,3.184
					l-0.403,1.552h-5.249l0.117-2.185c0.073-1.332,0.163-2.658,0.246-3.905c0.101-1.514,0.197-2.904,0.241-4.03l0.073-1.991h4.051
					l0.621,0.89c0.051,0.07,0.084,0.114,0.106,0.14c0.006-0.028,0.163-0.018,0.492-0.02h16.25c0.514,0,0.514,0,0.794-0.317
					l0.621-0.693h3.922l0.051,2.026c0.04,1.665,0.24,5.203,0.437,7.727l0.168,2.115l-5.316,0.296l-0.393-1.701
					c-0.509-2.193-0.99-2.924-1.225-3.161c-0.151-0.159-0.604-0.347-2.4-0.364v17.043c0,0.934,0.04,1.411,0.079,1.651
					c0.463,0.123,1.493,0.204,1.969,0.241l1.914,0.151V68.201z M101.28,64.054h2.12c-0.291-0.822-0.425-1.891-0.425-3.301V41.93
					h-1.264v18.823C101.711,62.158,101.577,63.232,101.28,64.054z"/>
			</g>
			<g>
				<path fill="#FFFFFF" d="M143.622,52.709c0,8.729-6.268,14.025-13.866,14.025c-8.08,0-13.703-5.942-13.703-13.703
					c0-6.95,4.934-13.782,14.189-13.782C137.594,39.25,143.622,44.705,143.622,52.709z M122.241,52.264
					c0,6.911,3.072,12.775,8.242,12.775c3.838,0,6.949-3.76,6.949-11.199c0-8.043-3.273-12.892-7.923-12.892
					C125.43,40.948,122.241,45.27,122.241,52.264z"/>
				<path fill="#FFFFFF" d="M129.755,68.811c-9.144,0-15.773-6.636-15.773-15.779c0-7.879,5.584-15.857,16.26-15.857
					c8.807,0,15.454,6.677,15.454,15.535C145.696,62.04,138.994,68.811,129.755,68.811z M129.509,43.021
					c-3.055,0-5.198,3.8-5.198,9.243c0,5.316,2.121,10.699,6.172,10.699c2.966,0,4.879-3.581,4.879-9.124
					C135.362,47.369,133.012,43.021,129.509,43.021z M121.776,44.341c-2.474,2.284-3.649,5.554-3.649,8.69
					c0,4.034,1.751,7.406,4.605,9.461c-1.628-2.585-2.568-6.116-2.568-10.229C120.165,49.204,120.741,46.501,121.776,44.341z
					 M137.13,43.492c1.527,2.568,2.378,6.11,2.378,10.348c0,3.119-0.493,5.599-1.298,7.529c2.104-2.112,3.335-5.12,3.335-8.66
					C141.545,48.787,139.872,45.505,137.13,43.492z"/>
			</g>
			<g>
				<path fill="#FFFFFF" d="M158.628,39.854c5.053,0,8.97,1.012,11.6,3.52c1.975,1.896,3.553,4.768,3.553,8.566
					c0,4.93-1.975,8.449-5.053,10.833c-2.987,2.266-7.189,3.354-12.242,3.354h-10.391v-1.413c3.195-0.285,3.598-0.565,3.598-4.001
					V45.27c0-3.475-0.363-3.715-3.228-4.001v-1.415H158.628z M155.108,60.468c0,2.91,0.611,3.922,3.441,3.922
					c5.411,0,9.132-4.448,9.132-11.641c0-3.838-1.175-6.914-2.993-8.732c-1.696-1.656-3.839-2.507-6.586-2.507
					c-1.455,0-2.306,0.324-2.547,0.568c-0.368,0.367-0.447,1.049-0.447,2.225V60.468z"/>
				<path fill="#FFFFFF" d="M156.485,68.201h-12.461v-5.388l1.891-0.166c0.32-0.031,1.198-0.109,1.618-0.215
					c0.045-0.246,0.09-0.741,0.09-1.718V45.27c0-0.979-0.04-1.497-0.084-1.768c-0.364-0.079-1.007-0.14-1.282-0.168l-1.869-0.185
					v-5.369h14.24c5.887,0,10.145,1.34,13.032,4.09c2.708,2.599,4.196,6.175,4.196,10.069c0,5.187-2.02,9.499-5.853,12.472
					C166.674,66.931,162.136,68.201,156.485,68.201z M151.354,64.054h2.31c-0.508-1.049-0.626-2.322-0.626-3.586V44.303
					c0-0.834,0.022-1.645,0.263-2.373h-1.919c0.28,0.839,0.386,1.93,0.386,3.34v15.444
					C151.768,62.125,151.656,63.212,151.354,64.054z M157.38,62.208c0.039,0,0.335,0.106,1.169,0.106
					c4.348,0,7.057-3.665,7.057-9.565c0-3.104-0.867-5.75-2.384-7.266c-1.32-1.287-2.954-1.897-5.119-1.897
					c-0.381,0-0.677,0.028-0.907,0.062c-0.005,0.162-0.011,0.375-0.011,0.655v16.165c0,1.32,0.15,1.67,0.19,1.743
					C157.375,62.208,157.375,62.208,157.38,62.208z M167.083,43.62c1.735,2.306,2.669,5.483,2.669,9.129
					c0,3.091-0.638,5.803-1.796,7.979c2.484-2.148,3.755-5.103,3.755-8.788c0-3.53-1.59-5.796-2.921-7.072
					C168.297,44.397,167.726,43.978,167.083,43.62z"/>
			</g>
			<g>
				<path fill="#FFFFFF" d="M189.554,66.127v-1.413c2.39-0.364,2.591-0.851,1.948-2.63c-0.409-1.211-1.013-2.91-1.617-4.565h-7.761
					c-0.447,1.253-0.974,2.708-1.46,4.325c-0.565,1.939-0.481,2.507,2.468,2.871v1.413h-9.054l0.04-1.413
					c2.669-0.325,3.156-0.767,4.487-4.163l8.287-20.776l2.059-0.526c2.591,7.072,5.092,14.106,7.722,21.062
					c1.371,3.553,1.903,4.079,4.443,4.404v1.413H189.554z M186.119,46.646h-0.118c-1.13,2.95-2.144,5.859-3.195,8.729h6.306
					L186.119,46.646z"/>
				<path fill="#FFFFFF" d="M203.19,68.201h-15.706v-5.268l1.762-0.272c0.089-0.011,0.167-0.024,0.241-0.039
					c-0.292-0.87-0.661-1.931-1.063-3.027h-4.834c-0.308,0.873-0.633,1.824-0.935,2.842c-0.011,0.04-0.023,0.073-0.034,0.104
					c0.196,0.037,0.447,0.076,0.761,0.113l1.819,0.227v5.321H171.94l0.156-5.333l1.768-0.215c1.769-0.213,1.769-0.213,2.809-2.863
					l8.679-21.766l4.908-1.248l2.993,8.231c1.774,4.885,3.537,9.747,5.361,14.564c1.108,2.87,1.108,2.87,2.764,3.083l1.813,0.23
					V68.201z M193.824,64.054h2.288c-0.481-0.794-0.9-1.779-1.376-2.999c-1.835-4.852-3.597-9.729-5.382-14.633l-1.371-3.779
					l-0.772,1.928h0.397l4.225,12.237c0.609,1.673,1.225,3.394,1.633,4.622C193.672,62.001,194.036,63.008,193.824,64.054z"/>
			</g>
			<g>
				<path fill="#FFFFFF" d="M224.649,41.269c-2.585,0.286-3.391,1.011-4.852,3.397c-1.493,2.384-2.545,4.121-4.526,7.92
					c-0.565,1.094-0.728,1.536-0.728,2.79v5.176c0,3.637,0.325,3.878,3.922,4.202v1.374h-13.137v-1.374
					c3.436-0.283,3.805-0.565,3.805-4.202v-4.49c0-1.011-0.168-1.414-0.532-2.181c-1.085-2.221-2.585-4.932-5.008-9.177
					c-1.499-2.666-2.182-3.111-4.409-3.436v-1.415h11.566v1.415c-2.669,0.365-2.629,0.89-1.902,2.345
					c1.41,2.792,3.032,5.78,4.604,8.774c1.176-2.305,3.235-6.104,4.208-8.572c0.644-1.617,0.604-2.144-2.389-2.547v-1.415h9.378
					V41.269z"/>
				<path fill="#FFFFFF" d="M220.542,68.201h-17.284v-5.357l1.897-0.157c0.403-0.033,1.371-0.115,1.807-0.229
					c0.062-0.316,0.095-0.957,0.095-1.905v-4.49c0-0.605-0.044-0.697-0.331-1.291c-0.979-2.009-2.322-4.465-4.94-9.037
					c-1.208-2.166-1.371-2.19-2.898-2.412l-1.78-0.257v-5.285h15.712v5.301l-1.79,0.244c0.761,1.479,1.572,3.024,2.4,4.585
					c0.805-1.567,1.617-3.207,2.154-4.499c-0.168-0.028-0.363-0.056-0.587-0.084l-1.797-0.247v-5.301h13.525v5.349l-1.853,0.201
					c-1.78,0.193-2.087,0.422-3.301,2.414c-1.455,2.317-2.468,3.985-4.459,7.8c-0.448,0.856-0.498,0.979-0.498,1.83v5.176
					c0,0.935,0.039,1.561,0.094,1.88c0.454,0.123,1.473,0.213,1.942,0.257l1.891,0.168V68.201z M210.784,64.054h2.104
					c-0.309-0.87-0.415-2.008-0.415-3.502v-5.176c0-0.14,0-0.271,0.006-0.397l-2.3-4.342c-1.108-2.081-2.193-4.129-3.184-6.082
					c-0.313-0.629-0.794-1.583-0.615-2.624h-2.082c0.358,0.492,0.716,1.074,1.103,1.762c2.243,3.928,3.878,6.857,5.064,9.275
					c0.454,0.951,0.739,1.664,0.739,3.095v4.49C211.204,62.04,211.091,63.182,210.784,64.054z"/>
			</g>
		</g>
		<g>
			<path fill="#0F5601" d="M104.301,21.204c-0.525,1.937-1.578,5.009-2.265,6.424c-1.047,0.241-4.768,1.052-7.521,1.052
				c-10.749,0-15.236-6.994-15.236-13.418c0-8.287,6.39-14.067,16.048-14.067c3.273,0,6.267,0.851,7.359,1.092
				c0.363,2.224,0.649,4.081,0.928,6.628l-1.494,0.283c-1.338-4.807-4.448-6.223-7.56-6.223c-5.864,0-9.093,5.534-9.093,11.479
				c0,7.434,4,12.327,9.496,12.327c3.357,0,5.864-2.143,7.923-6.225L104.301,21.204z"/>
			<path fill="#0F5601" d="M121.167,28.076V26.66c2.383-0.363,2.585-0.85,1.936-2.629c-0.403-1.211-1.008-2.91-1.617-4.566h-7.761
				c-0.442,1.253-0.967,2.708-1.449,4.326c-0.571,1.941-0.487,2.507,2.462,2.87v1.417h-9.054l0.039-1.417
				c2.669-0.324,3.156-0.77,4.487-4.163l8.288-20.776l2.064-0.526c2.585,7.073,5.092,14.107,7.716,21.059
				c1.376,3.556,1.903,4.082,4.449,4.406v1.417H121.167z M117.73,8.592h-0.123c-1.13,2.948-2.137,5.861-3.189,8.729h6.307
				L117.73,8.592z"/>
			<path fill="#0F5601" d="M155.651,21.244c-0.324,1.698-1.169,5.741-1.493,6.833h-19.685V26.66
				c3.514-0.285,3.917-0.565,3.917-3.961V7.215c0-3.474-0.403-3.715-3.475-3.998V1.802h12.372v1.416
				c-3.117,0.283-3.48,0.523-3.48,3.998v15.768c0,1.897,0.162,2.624,1.013,2.988c0.683,0.283,1.78,0.364,3.033,0.364
				c1.696,0,3.151-0.283,4.124-1.374c0.766-0.848,1.494-2.143,2.261-4.163L155.651,21.244z"/>
			<path fill="#0F5601" d="M177.927,21.244c-0.319,1.698-1.169,5.741-1.493,6.833h-19.686V26.66c3.52-0.285,3.923-0.565,3.923-3.961
				V7.215c0-3.474-0.403-3.715-3.476-3.998V1.802h12.372v1.416c-3.117,0.283-3.481,0.523-3.481,3.998v15.768
				c0,1.897,0.163,2.624,1.013,2.988c0.683,0.283,1.78,0.364,3.027,0.364c1.702,0,3.156-0.283,4.125-1.374
				c0.772-0.848,1.494-2.143,2.266-4.163L177.927,21.244z"/>
			<path fill="#0F5601" d="M216.094,3.218c-2.216,0.117-3.234,0.968-3.436,2.383c-0.201,1.251-0.364,2.75-0.364,5.618v4.406
				c0,4.284-0.644,7.677-2.91,10.105c-1.858,1.939-4.605,2.949-7.476,2.949c-2.669,0-5.215-0.565-7.156-2.101
				c-2.3-1.777-3.352-4.77-3.352-9.499V7.582c0-3.802-0.403-4.081-3.396-4.364V1.802h12.165v1.416
				c-2.95,0.283-3.358,0.562-3.358,4.364v8.772c0,6.059,2.188,9.579,6.553,9.579c4.812,0,6.916-3.64,6.916-10.39v-4.323
				c0-2.868-0.201-4.407-0.408-5.618c-0.202-1.415-1.176-2.224-3.917-2.383V1.802h10.139V3.218z"/>
			<path fill="#0F5601" d="M232.802,8.391c-0.851-2.546-2.344-5.539-5.663-5.539c-2.26,0-3.917,1.698-3.917,4
				c0,2.227,1.455,3.519,5.008,5.296c4.247,2.062,7.157,4.326,7.157,8.329c0,4.605-3.923,8.203-9.82,8.203
				c-1.46,0-2.871-0.201-4.084-0.565c-1.13-0.324-1.903-0.649-2.468-0.889c-0.363-1.012-0.883-4.406-1.169-6.871l1.415-0.445
				c0.806,2.588,3.19,7.114,7.073,7.114c2.468,0,4.04-1.699,4.04-4.244c0-2.387-1.779-3.88-4.807-5.498
				c-4.168-2.101-7.033-4.287-7.033-8.163c0-4.449,3.514-7.924,9.254-7.924c2.585,0,4.891,0.809,5.618,1.092
				c0.163,1.494,0.448,3.273,0.768,5.78L232.802,8.391z"/>
		</g>
		<g>
			<path fill="#0F5601" d="M112.773,45.886c-0.487-2.104-1.052-3.435-1.779-4.163c-0.688-0.727-1.74-0.968-4.08-0.968h-1.863v19.114
				c0,3.438,0.403,3.682,3.962,3.961v1.416H95.835v-1.416c3.396-0.28,3.799-0.523,3.799-3.961V40.755h-1.376
				c-3.313,0-4.041,0.442-4.645,1.088c-0.649,0.686-1.175,2.062-1.695,4.082h-1.46c0.162-2.949,0.409-5.9,0.487-7.962h0.974
				c0.644,0.929,1.169,1.012,2.299,1.012h16.25c1.09,0,1.656-0.243,2.344-1.012h0.968c0.044,1.701,0.247,5.257,0.447,7.842
				L112.773,45.886z"/>
			<path fill="#0F5601" d="M143.622,51.828c0,8.729-6.268,14.025-13.866,14.025c-8.08,0-13.703-5.942-13.703-13.701
				c0-6.955,4.934-13.785,14.189-13.785C137.594,38.368,143.622,43.827,143.622,51.828z M122.241,51.381
				c0,6.913,3.072,12.774,8.242,12.774c3.838,0,6.949-3.76,6.949-11.197c0-8.043-3.273-12.892-7.923-12.892
				C125.43,40.067,122.241,44.392,122.241,51.381z"/>
			<path fill="#0F5601" d="M158.628,38.975c5.053,0,8.97,1.01,11.6,3.514c1.975,1.903,3.553,4.773,3.553,8.57
				c0,4.932-1.975,8.447-5.053,10.835c-2.987,2.261-7.189,3.352-12.242,3.352h-10.391v-1.416c3.195-0.28,3.598-0.564,3.598-4V44.392
				c0-3.478-0.363-3.721-3.228-4.001v-1.416H158.628z M155.108,59.589c0,2.909,0.611,3.919,3.441,3.919
				c5.411,0,9.132-4.446,9.132-11.641c0-3.839-1.175-6.911-2.993-8.73c-1.696-1.656-3.839-2.506-6.586-2.506
				c-1.455,0-2.306,0.322-2.547,0.565c-0.368,0.363-0.447,1.052-0.447,2.223V59.589z"/>
			<path fill="#0F5601" d="M189.554,65.247v-1.416c2.39-0.364,2.591-0.845,1.948-2.627c-0.409-1.211-1.013-2.91-1.617-4.565h-7.761
				c-0.447,1.25-0.974,2.71-1.46,4.325c-0.565,1.938-0.481,2.504,2.468,2.868v1.416h-9.054l0.04-1.416
				c2.669-0.322,3.156-0.767,4.487-4.163l8.287-20.776l2.059-0.523c2.591,7.073,5.092,14.106,7.722,21.059
				c1.371,3.558,1.903,4.082,4.443,4.403v1.416H189.554z M186.119,45.763h-0.118c-1.13,2.954-2.144,5.864-3.195,8.732h6.306
				L186.119,45.763z"/>
			<path fill="#0F5601" d="M224.649,40.391c-2.585,0.28-3.391,1.007-4.852,3.391c-1.493,2.386-2.545,4.124-4.526,7.923
				c-0.565,1.091-0.728,1.539-0.728,2.79v5.173c0,3.64,0.325,3.883,3.922,4.205v1.374h-13.137v-1.374
				c3.436-0.282,3.805-0.565,3.805-4.205V55.18c0-1.007-0.168-1.411-0.532-2.182c-1.085-2.222-2.585-4.93-5.008-9.171
				c-1.499-2.669-2.182-3.116-4.409-3.436v-1.416h11.566v1.416c-2.669,0.364-2.629,0.887-1.902,2.342
				c1.41,2.79,3.032,5.78,4.604,8.771c1.176-2.305,3.235-6.104,4.208-8.566c0.644-1.617,0.604-2.143-2.389-2.546v-1.416h9.378
				V40.391z"/>
		</g>
	</g>
	<rect x="-1" y="118.744" fill="#5E9B22" width="318" height="11"/>
</g>
</svg>
